<?xml version="1.0" encoding="UTF-8"?>
<!-- Generated by Pixelmator Pro 3.8 -->
<svg width="18" height="18" viewBox="0 0 36 36" xmlns="http://www.w3.org/2000/svg">
    <path id="Path" fill="#fd0c54" stroke="none" d="M 13.506494 0 C 14.140779 0 14.775065 0 15.428572 0 C 15.428572 0.634285 15.428572 1.26857 15.428572 1.922077 C 17.348572 1.922077 19.26857 1.922077 21.246754 1.922077 C 21.246754 3.20779 21.246754 4.493507 21.246754 5.818182 C 21.881041 5.818182 22.515324 5.818182 23.168831 5.818182 C 23.168831 6.435326 23.168831 7.052467 23.168831 7.688313 C 23.820259 7.688313 24.471689 7.688313 25.142857 7.688313 C 25.142857 8.974026 25.142857 10.259741 25.142857 11.584415 C 23.857143 11.584415 22.571428 11.584415 21.246754 11.584415 C 21.246754 12.218702 21.246754 12.852985 21.246754 13.506493 C 24.452469 13.506493 27.658184 13.506493 30.961039 13.506493 C 30.961039 12.237923 30.961039 10.969353 30.961039 9.662338 C 31.595324 9.662338 32.229614 9.662338 32.883118 9.662338 C 32.883118 9.01091 32.883118 8.35948 32.883118 7.688313 C 33.911686 7.688313 34.940258 7.688313 36 7.688313 C 36 9.608313 36 11.528311 36 13.506493 C 35.605717 13.506493 35.21143 13.506493 34.805195 13.506493 C 34.805195 14.140778 34.805195 14.775066 34.805195 15.428572 C 34.17091 15.428572 33.536621 15.428572 32.883118 15.428572 C 32.883118 16.080002 32.883118 16.731426 32.883118 17.402597 C 32.248833 17.402597 31.614544 17.402597 30.961039 17.402597 C 30.961039 18.036882 30.961039 18.671169 30.961039 19.324675 C 30.309608 19.324675 29.658184 19.324675 28.987013 19.324675 C 28.987013 19.958961 28.987013 20.593246 28.987013 21.246754 C 28.35273 21.246754 27.718439 21.246754 27.064936 21.246754 C 27.064936 21.881039 27.064936 22.515326 27.064936 23.168831 C 25.779221 23.168831 24.493507 23.168831 23.168831 23.168831 C 23.168831 23.820259 23.168831 24.471687 23.168831 25.142857 C 22.534544 25.142857 21.900261 25.142857 21.246754 25.142857 C 21.246754 25.777142 21.246754 26.41143 21.246754 27.064934 C 20.612467 27.064934 19.978182 27.064934 19.324675 27.064934 C 19.324675 27.699223 19.324675 28.333506 19.324675 28.987013 C 18.038961 28.987013 16.753246 28.987013 15.428572 28.987013 C 15.428572 30.272728 15.428572 31.558441 15.428572 32.883118 C 14.794286 32.883118 14.159999 32.883118 13.506494 32.883118 C 13.506494 33.894543 13.506494 34.905975 13.506494 35.948051 C 12.872209 35.948051 12.237922 35.948051 11.584415 35.948051 C 11.584415 35.570908 11.584415 35.193764 11.584415 34.805195 C 10.298701 34.805195 9.012987 34.805195 7.688312 34.805195 C 7.688312 33.536625 7.688312 32.268051 7.688312 30.961039 C 8.974026 30.961039 10.25974 30.961039 11.584415 30.961039 C 11.584415 30.309612 11.584415 29.65818 11.584415 28.987013 C 12.2187 28.987013 12.852987 28.987013 13.506494 28.987013 C 13.506494 27.067013 13.506494 25.147013 13.506494 23.168831 C 10.969351 23.168831 8.432208 23.168831 5.818182 23.168831 C 5.818182 22.534546 5.818182 21.900259 5.818182 21.246754 C 5.183895 21.246754 4.549611 21.246754 3.896104 21.246754 C 3.896104 20.612469 3.896104 19.978182 3.896104 19.324675 C 3.244676 19.324675 2.593247 19.324675 1.922078 19.324675 C 1.922078 17.404676 1.922078 15.484673 1.922078 13.506493 C 1.287792 13.506493 0.653507 13.506493 -0 13.506493 C -0 11.586493 -0 9.666494 -0 7.688313 C 0.634286 7.688313 1.268571 7.688313 1.922078 7.688313 C 1.922078 8.322599 1.922078 8.956882 1.922078 9.61039 C 3.207792 9.61039 4.493506 9.61039 5.818182 9.61039 C 5.818182 10.896105 5.818182 12.181818 5.818182 13.506493 C 7.738182 13.506493 9.658181 13.506493 11.636364 13.506493 C 11.636364 14.140778 11.636364 14.775066 11.636364 15.428572 C 12.887792 15.428572 14.13922 15.428572 15.428572 15.428572 C 15.428572 14.177145 15.428572 12.925714 15.428572 11.636364 C 14.794286 11.636364 14.159999 11.636364 13.506494 11.636364 C 13.506494 9.716362 13.506494 7.796364 13.506494 5.818182 C 12.872209 5.818182 12.237922 5.818182 11.584415 5.818182 C 11.584415 4.515324 11.584415 3.212467 11.584415 1.870129 C 12.2187 1.870129 12.852987 1.870129 13.506494 1.870129 C 13.506494 1.252987 13.506494 0.635845 13.506494 0 Z"/>
    <path id="path1" fill="#df0d4a" stroke="none" d="M -0 7.688313 C 0.634286 7.688313 1.268571 7.688313 1.922078 7.688313 C 1.922078 8.322599 1.922078 8.956882 1.922078 9.61039 C 3.207792 9.61039 4.493506 9.61039 5.818182 9.61039 C 5.818182 10.896105 5.818182 12.181818 5.818182 13.506493 C 5.801038 13.506493 5.783896 13.506493 5.766234 13.506493 C 5.74909 12.889351 5.731948 12.272207 5.714286 11.636364 C 5.281963 11.637972 5.281963 11.637972 4.840909 11.63961 C 3.867179 11.641357 2.895149 11.618643 1.922078 11.584415 C 1.880182 10.302259 1.865177 9.023212 1.87013 7.740259 C 1.252987 7.740259 0.635844 7.740259 -0 7.740259 C -0 7.723116 -0 7.705975 -0 7.688313 Z"/>
    <path id="path2" fill="#ff0b55" stroke="none" d="M 32.883118 7.688313 C 33.911686 7.688313 34.940258 7.688313 36 7.688313 C 36 9.608313 36 11.528311 36 13.506493 C 35.982857 13.506493 35.965717 13.506493 35.948051 13.506493 C 35.948051 11.603636 35.948051 9.700779 35.948051 7.740259 C 35.570908 7.740259 35.193764 7.740259 34.805195 7.740259 C 34.805195 8.357403 34.805195 8.974546 34.805195 9.61039 C 34.170906 9.61039 33.536625 9.61039 32.883118 9.61039 C 32.883118 8.976103 32.883118 8.34182 32.883118 7.688313 Z"/>
    <path id="path3" fill="#ff0b55" stroke="none" d="M 15.428572 28.987013 C 16.08 28.987013 16.731428 28.987013 17.402597 28.987013 C 17.402597 29.638443 17.402597 30.289869 17.402597 30.961039 C 16.751169 30.961039 16.099741 30.961039 15.428572 30.961039 C 15.428572 30.30961 15.428572 29.658182 15.428572 28.987013 Z"/>
    <path id="path4" fill="#e80c4d" stroke="none" d="M 23.168831 7.688313 C 23.820259 7.688313 24.471689 7.688313 25.142857 7.688313 C 25.142857 8.974026 25.142857 10.259741 25.142857 11.584415 C 25.125713 11.584415 25.108572 11.584415 25.09091 11.584415 C 25.09091 10.932987 25.09091 10.281557 25.09091 9.61039 C 24.456623 9.61039 23.822338 9.61039 23.168831 9.61039 C 23.168831 8.976103 23.168831 8.34182 23.168831 7.688313 Z"/>
    <path id="path5" fill="#ee0d4f" stroke="none" d="M 28.987013 17.402597 C 29.638441 17.402597 30.289871 17.402597 30.961039 17.402597 C 30.961039 18.036882 30.961039 18.671169 30.961039 19.324675 C 30.309612 19.324675 29.65818 19.324675 28.987013 19.324675 C 28.987013 18.69039 28.987013 18.056103 28.987013 17.402597 Z"/>
    <path id="path6" fill="#ee0e4f" stroke="none" d="M 1.922078 17.402597 C 2.573506 17.402597 3.224935 17.402597 3.896104 17.402597 C 3.896104 18.036882 3.896104 18.671169 3.896104 19.324675 C 3.244675 19.324675 2.593247 19.324675 1.922078 19.324675 C 1.922078 18.69039 1.922078 18.056103 1.922078 17.402597 Z"/>
    <path id="path7" fill="#ee0e4f" stroke="none" d="M 17.632114 7.682415 C 17.710979 7.682426 17.789846 7.682716 17.86871 7.683239 C 17.90542 7.683289 17.942133 7.683344 17.979956 7.683397 C 18.11759 7.68367 18.255226 7.684397 18.392857 7.685064 C 18.700357 7.686136 19.007856 7.687208 19.324675 7.688313 C 19.324675 8.322599 19.324675 8.956882 19.324675 9.61039 C 18.877888 9.624855 18.877888 9.624855 18.422077 9.63961 C 18.281115 9.644388 18.281115 9.644388 18.137302 9.649261 C 18.062992 9.651545 17.98868 9.653809 17.914368 9.656048 C 17.856277 9.658127 17.856277 9.658127 17.797014 9.660252 C 17.518345 9.668264 17.518345 9.668264 17.402597 9.61039 C 17.401316 9.345005 17.400372 9.079624 17.399744 8.814238 C 17.399483 8.723886 17.399128 8.633535 17.398678 8.543184 C 17.39805 8.413597 17.397755 8.284012 17.397524 8.154423 C 17.397257 8.113785 17.396988 8.073147 17.396713 8.031275 C 17.396702 7.93425 17.399376 7.837231 17.402597 7.740259 C 17.454546 7.688313 17.454546 7.688313 17.632114 7.682415 Z"/>
    <path id="path8" fill="#eb0c4e" stroke="none" d="M 13.506494 30.961039 C 14.140779 30.961039 14.775065 30.961039 15.428572 30.961039 C 15.428572 31.595325 15.428572 32.22961 15.428572 32.883118 C 14.794286 32.883118 14.159999 32.883118 13.506494 32.883118 C 13.506494 32.248833 13.506494 31.614546 13.506494 30.961039 Z"/>
    <path id="path9" fill="#d70e47" stroke="none" d="M 30.961039 9.662338 C 31.595325 9.662338 32.22961 9.662338 32.883118 9.662338 C 32.883118 10.296625 32.883118 10.930908 32.883118 11.584415 C 32.248829 11.584415 31.614546 11.584415 30.961039 11.584415 C 30.961039 10.950129 30.961039 10.315845 30.961039 9.662338 Z"/>
    <path id="path10" fill="#ed0c4f" stroke="none" d="M 0.051948 7.792208 C 0.634805 7.792208 1.217662 7.792208 1.818182 7.792208 C 1.818182 8.392208 1.818182 8.992207 1.818182 9.61039 C 1.235325 9.61039 0.652467 9.61039 0.051948 9.61039 C 0.051948 9.010389 0.051948 8.410391 0.051948 7.792208 Z"/>
    <path id="path11" fill="#ff0b55" stroke="none" d="M 9.61039 34.805195 C 10.261819 34.805195 10.913246 34.805195 11.584415 34.805195 C 11.584415 35.182339 11.584415 35.559483 11.584415 35.948051 C 12.2187 35.948051 12.852986 35.948051 13.506494 35.948051 C 13.506494 35.965195 13.506494 35.982338 13.506494 36 C 12.220779 36 10.935065 36 9.61039 36 C 9.61039 35.605713 9.61039 35.21143 9.61039 34.805195 Z"/>
    <path id="path12" fill="#ee0e4f" stroke="none" d="M 34.805195 7.740259 C 35.636364 7.740259 35.636364 7.740259 35.896103 7.792208 C 35.896103 8.392208 35.896103 8.992207 35.896103 9.61039 C 35.536106 9.61039 35.176105 9.61039 34.805195 9.61039 C 34.805195 8.993246 34.805195 8.376102 34.805195 7.740259 Z"/>
</svg>
